<?xml version="1.0" encoding="iso-8859-1"?>
<!-- Uploaded to: SVG Repo, www.svgrepo.com, Generator: SVG Repo Mixer Tools -->
<svg fill="#000000" height="800px" width="800px" version="1.1" id="Layer_1" xmlns="http://www.w3.org/2000/svg" xmlns:xlink="http://www.w3.org/1999/xlink" 
	 viewBox="0 0 512.274 512.274" xml:space="preserve">
<g transform="translate(-1 -1)">
	<g>
		<g>
			<path d="M513.205,310c0.043-0.734-0.017-1.502-0.111-2.278c-0.009-0.068,0.026-0.128,0.017-0.196
				c-0.009-0.068-0.026-0.145-0.034-0.213v-0.017c0,0-0.009-0.009-0.009-0.017c-1.161-9.182-8.158-29.534-45.969-28.689
				c-23.057,0.623-49.442-13.423-49.707-13.568c-0.273-0.145-0.572-0.29-0.862-0.401l-58.487-23.398
				c5.265-10.786,2.372-24.166-7.561-31.676c-11.255-8.491-27.349-6.238-35.849,5.009l-3.43,4.54
				c-3.883-2.364-7.885-4.966-12.134-7.902c8.439-11.264,6.195-27.298-5.052-35.797c-10.547-7.962-25.216-6.383-34.031,3.055
				c-3.9-3.977-7.569-7.868-10.82-11.682c-41.6-48.751-60.151-52.002-70.477-50.185c-3.755,0.666-7.723,1.69-12.109,3.149
				c-2.389,0.794-4.301,2.603-5.239,4.932c-5.837,14.635-23.578,28.638-45.175,35.669c-22.229,7.228-45.124,6.118-58.325-2.816
				c-4.907-3.319-9.882-5.47-15.01-6.391c-3.627-15.07-17.126-26.334-33.297-26.334c-4.71,0-8.533,3.814-8.533,8.533
				s3.823,8.533,8.533,8.533c9.523,0,17.263,7.74,17.263,17.263v81.527c-10.76,11.051-44.68,52.642-10.607,106.052
				c-11.29,18.167-5.53,31.334-0.725,37.828c6.255,8.465,16.828,13.525,28.271,13.525h337.493c39.1,0,78.413-8.926,113.681-25.813
				l4.181-2.005C511.609,364.289,513.717,334.585,513.205,310z M311.298,249.533c0.034-0.35-0.026-0.708,0.051-1.05
				c0.273-1.143,0.742-2.244,1.468-3.208l15.437-20.437c2.833-3.746,8.201-4.497,11.947-1.664c3.755,2.833,4.506,8.201,1.672,11.955
				l-3.695,4.898c0,0-0.017,0.009-0.017,0.017l-4.693,6.221l-6.494,8.593c-1.971,2.577-5.009,3.959-7.876,3.917
				c-0.273-0.009-0.555,0-0.828-0.043c-0.538-0.06-1.041-0.256-1.553-0.427c-0.512-0.196-1.016-0.427-1.493-0.725
				c-0.597-0.375-1.109-0.828-1.587-1.314c-0.35-0.358-0.717-0.717-0.998-1.126c-0.393-0.589-0.657-1.246-0.896-1.92
				c-0.154-0.427-0.358-0.836-0.435-1.28C311.161,251.129,311.212,250.335,311.298,249.533z M254.833,215.4
				c0.034-0.358-0.026-0.725,0.06-1.075c0.265-1.152,0.742-2.244,1.468-3.208l15.428-20.429c2.833-3.755,8.201-4.506,11.947-1.673
				c3.755,2.833,4.506,8.201,1.673,11.964l-6.656,8.806l-8.226,10.889c-1.963,2.594-5.018,3.985-7.885,3.942
				c-0.282-0.017-0.563,0.009-0.845-0.043c-0.538-0.06-1.033-0.256-1.536-0.427c-0.521-0.196-1.015-0.427-1.502-0.725
				c-0.597-0.375-1.101-0.828-1.579-1.306c-0.358-0.367-0.725-0.725-1.007-1.143c-0.384-0.572-0.648-1.229-0.887-1.894
				c-0.154-0.435-0.358-0.853-0.444-1.306C254.696,216.978,254.756,216.185,254.833,215.4z M69.83,262.734
				c0.973-3.2,3.712-5.538,7.031-5.982l25.626-3.473l10.522-21.333c2.876-5.828,12.433-5.828,15.309,0l10.53,21.333l25.626,3.473
				c3.311,0.444,6.059,2.782,7.023,5.982c0.973,3.191-0.009,6.656-2.509,8.866l-18.739,16.555l4.403,23.159
				c0.606,3.2-0.666,6.477-3.277,8.431c-1.502,1.118-3.302,1.698-5.112,1.698c-1.331,0-2.671-0.307-3.908-0.956l-21.692-11.162
				l-21.692,11.162c-2.901,1.493-6.4,1.212-9.011-0.742c-2.611-1.954-3.883-5.231-3.277-8.431l4.403-23.159L72.347,271.6
				C69.847,269.39,68.866,265.926,69.83,262.734z M491.121,355.125l-3.593,1.724c-32.981,15.795-69.734,24.141-106.3,24.141H43.735
				c-6.05,0-11.486-2.466-14.549-6.605c-1.451-1.963-5.615-7.586,1.655-18.995h388.258c1.664,0,3.311-0.188,4.932-0.469
				c0.794-0.128,1.562-0.324,2.33-0.521c0.657-0.171,1.297-0.358,1.937-0.572c4.198-1.365,8.004-3.55,10.914-6.63
				c0.128-0.137,0.29-0.23,0.427-0.358c1.126-1.084,2.389-1.937,3.797-2.483c0.008-0.009,0.017-0.009,0.026-0.017
				c0.538-0.205,1.246-0.452,1.929-0.691c3.277-1.135,7.962-2.569,13.346-4.198c4.617-1.399,8.849-2.714,12.868-4.002
				c0.503-0.162,0.964-0.316,1.459-0.478c3.268-1.05,6.349-2.082,9.225-3.089c0.862-0.299,1.698-0.606,2.534-0.905
				c2.415-0.879,4.685-1.749,6.793-2.603c0.768-0.307,1.553-0.623,2.278-0.939c0.631-0.273,1.382-0.546,1.988-0.819
				C495.199,340.379,493.382,351.95,491.121,355.125z"/>
			<path d="M108.762,286.574l-2.039,10.735l10.035-5.171c1.229-0.631,2.569-0.947,3.908-0.947s2.679,0.316,3.908,0.947l10.035,5.171
				l-2.039-10.735c-0.563-2.961,0.478-5.99,2.731-7.987l8.405-7.424l-11.648-1.57c-2.816-0.384-5.248-2.133-6.511-4.685
				l-4.881-9.899l-4.881,9.899c-1.263,2.551-3.695,4.301-6.511,4.685l-11.648,1.57l8.405,7.424
				C108.284,280.583,109.326,283.613,108.762,286.574z"/>
		</g>
	</g>
</g>
</svg>